<svg width="448" height="448" viewBox="0 0 448 448" fill="none" xmlns="http://www.w3.org/2000/svg">
<g clip-path="url(#clip0_1039_387)">
<path fill-rule="evenodd" clip-rule="evenodd" d="M112.125 133.845C111.945 139.566 104.697 156.092 106.233 185.472C111.898 293.863 224.134 361.518 323.913 315.95C328.038 314.067 340.017 307.641 342.331 305.34C338.768 305.34 336.574 305.651 333.974 305.866C331.68 306.057 329.099 305.3 325.76 305.336C319.932 305.4 313.928 304.456 309.018 303.648C287.194 300.057 261.947 289.443 245.348 275.808C243.549 274.331 242.269 273.34 240.382 271.863L235.232 267.507C230.597 263.431 226.236 258.395 222.379 253.629C209.407 237.605 199.139 219.642 193.989 198.885C191.563 189.111 190.993 185.357 189.752 175.818C188.643 167.295 189.15 158.313 189.589 149.865C189.868 144.503 192.094 131.91 193.546 126.516C194.28 123.773 194.906 121.842 195.664 119.135C197.24 113.49 203.16 98.887 206.343 93.5921L216.97 76.8833C218.218 75.0998 220.069 72.5041 216.24 72.1299H213.974C203.646 72.8385 178.308 81.605 173.142 84.1927C166.476 87.5328 161.921 89.4239 155.347 93.7354C138.68 104.664 123.677 117.363 112.125 133.845Z" fill="#EFD945"/>
<path fill-rule="evenodd" clip-rule="evenodd" d="M342.33 305.34C340.017 307.641 328.038 314.067 323.913 315.95C224.134 361.518 111.897 293.862 106.233 185.472C104.697 156.092 111.945 139.566 112.125 133.845C110.725 135.115 105.682 143.046 104.565 145.12C96.1364 160.774 91.9479 168.839 87.4442 186.778C78.1138 223.906 83.5469 266.114 103.125 299.066C107.322 306.136 109.651 310.185 114.749 316.539C124.355 328.502 131.966 336.098 144.313 345.78C146.235 347.285 148.238 348.432 150.256 349.941C155.925 354.169 168.965 361.02 175.236 363.58L189.513 368.915C194.06 370.439 199.805 372.02 204.99 373.051C235.615 379.134 276.291 375.603 304.007 360.188C306.285 358.922 308.164 358.086 310.302 356.975C312.492 355.841 314.383 354.563 316.653 353.221C318.835 351.931 320.347 350.936 322.429 349.495C338.605 338.308 350.161 326.317 361.777 310.432C363.341 308.29 364.929 306.698 365 303.56C361.853 301.9 360.517 303.131 354.721 303.982C350.947 304.536 346.092 305.34 342.33 305.34Z" fill="#EDC148"/>
</g>
<defs>
<clipPath id="clip0_1039_387">
<rect width="282" height="304" fill="white" transform="translate(83 72)"/>
</clipPath>
</defs>
</svg>