<svg width="448" height="448" fill="none" xmlns="http://www.w3.org/2000/svg"><g clip-path="url(#clip0_921_493)" fill-rule="evenodd" clip-rule="evenodd"><path d="M169.73 128.57c10.397-3.292 19.16 10.039 8.841 19.094-3.723 3.268-7.38 5.061-10.676 8.329-10.553 10.475-17.215 18.027-23.803 33.153-3.431 7.877-5.069 21.59-13.463 23.577a10.711 10.711 0 0 1-12.372-6.038c-3.587-8.328 9.847-34.372 13.763-40.607 7.048-11.222 26.59-33.987 37.71-37.508zm-50.734 181.605c14.752 7.893 16.472 12.925 39.901 20.864 33.954 11.505 70.699 9.206 102.928-6.215 6.633-3.173 14.235-7.626 19.39-11.562 32-24.431 52.031-54.847 56.336-97.293 2.648-26.142-2.799-54.287-14.981-76.596-3.994-7.319-8.591-13.028-11.785-19.308-5.106-7.618-30.07-19.608-39.449-23.421-31.996-13.008-74.101-11.005-105.383 4.416-9.884 4.873-20.843 11.485-29.192 18.783-10.069 8.805-6.785 5.381-15.544 15.434-41.592 47.724-43.353 114.047-9.219 165.683 2.434 3.682 4.347 5.66 6.998 9.215z" fill="#FECB6C"/><path d="M118.996 310.175c23.126 29.442 56.845 45.413 95.088 49.6 21.833 2.389 47.408-4.154 61.689-9.978 60.239-24.563 99.061-92.597 78.669-164.362-2.877-10.126-6.465-17.108-10.574-25.404-6.317-12.749-21.315-32.537-33.083-39.967 3.193 6.281 7.791 11.99 11.784 19.309 12.183 22.308 17.63 50.454 14.982 76.596-4.305 42.446-24.336 72.861-56.336 97.292-5.155 3.937-12.757 8.39-19.39 11.563-32.23 15.421-68.974 17.72-102.928 6.214-23.429-7.938-25.149-12.97-39.901-20.863z" fill="#FFC24F"/><path d="M169.729 128.569c-11.119 3.522-30.662 26.286-37.709 37.508-3.916 6.235-17.35 32.279-13.763 40.607a10.71 10.71 0 0 0 12.371 6.038c8.394-1.987 10.032-15.7 13.464-23.577 6.588-15.125 13.249-22.678 23.802-33.153 3.296-3.267 6.954-5.061 10.676-8.328 10.32-9.055 1.556-22.387-8.841-19.095z" fill="#FFFEFD"/><path d="M62.031 74.092c0 5.78 16.037 19.534 20.236 23.737 3.37 3.366 7.549 8.193 10.984 11.009 10.623 8.69 24.209-4.897 15.516-15.52-3.284-4.014-29.677-31.22-34.746-31.22-6.715 0-11.99 5.275-11.99 11.994zM385.834 74.092c0-6.719-5.279-11.993-11.994-11.993-5.065 0-31.458 27.205-34.746 31.22-8.689 10.622 4.897 24.209 15.52 15.519 3.435-2.816 7.614-7.643 10.98-11.008 4.203-4.204 20.24-17.958 20.24-23.738zM373.84 385.901c6.715 0 11.994-5.274 11.994-11.99 0-5.069-27.206-31.462-31.22-34.749-10.623-8.69-24.209 4.896-15.52 15.519 3.288 4.019 29.681 31.22 34.746 31.22zM62.031 373.911c0 6.716 5.275 11.99 11.99 11.99 5.07 0 31.462-27.201 34.746-31.22 8.693-10.623-4.893-24.209-15.516-15.519-4.018 3.287-31.22 29.68-31.22 34.749zM.068 223.001c0 7.396 3.6 11.993 11.994 11.993H48.04c16.172 0 16.172-21.988 0-21.988H12.062c-6.452 0-11.994 3.743-11.994 9.995zM387.832 223.001c0 7.396 3.596 11.993 11.994 11.993h35.977c16.172 0 16.172-21.988 0-21.988h-35.977c-6.453 0-11.994 3.743-11.994 9.995zM212.939 399.894v35.977c0 16.172 21.985 16.172 21.985 0v-35.977c0-16.172-21.985-16.172-21.985 0zM212.939 12.13v35.976c0 16.177 21.985 16.177 21.985 0V12.13c0-16.172-21.985-16.172-21.985 0z" fill="#FDCB6C"/></g><defs><clipPath id="clip0_921_493"><path fill="#fff" d="M0 0h448v448H0z"/></clipPath></defs></svg>