<svg width="448" height="448" viewBox="0 0 448 448" fill="none" xmlns="http://www.w3.org/2000/svg">
<g clip-path="url(#clip0_1043_437)">
<g clip-path="url(#clip1_1043_437)">
<path fill-rule="evenodd" clip-rule="evenodd" d="M79.1249 146.845C78.9454 152.566 71.6972 169.092 73.233 198.472C78.8975 306.863 191.134 374.518 290.913 328.95C295.038 327.067 307.017 320.641 309.331 318.34C305.768 318.34 303.574 318.651 300.974 318.866C298.68 319.057 296.099 318.3 292.76 318.336C286.932 318.4 280.928 317.456 276.018 316.648C254.194 313.057 228.947 302.443 212.348 288.808C210.549 287.331 209.269 286.34 207.382 284.863L202.232 280.507C197.597 276.431 193.236 271.395 189.379 266.629C176.407 250.605 166.139 232.642 160.989 211.885C158.563 202.111 157.993 198.357 156.752 188.818C155.643 180.295 156.15 171.313 156.589 162.865C156.868 157.503 159.094 144.91 160.546 139.516C161.28 136.773 161.906 134.842 162.664 132.135C164.24 126.49 170.16 111.887 173.343 106.592L183.97 89.8833C185.218 88.0998 187.069 85.5041 183.24 85.1299H180.974C170.646 85.8385 145.308 94.605 140.142 97.1927C133.476 100.533 128.921 102.424 122.347 106.735C105.68 117.664 90.6773 130.363 79.1249 146.845Z" fill="#EFD945"/>
<path fill-rule="evenodd" clip-rule="evenodd" d="M309.33 318.34C307.017 320.641 295.038 327.067 290.913 328.95C191.134 374.518 78.8973 306.862 73.2328 198.472C71.697 169.092 78.9452 152.566 79.1247 146.845C77.7245 148.115 72.6823 156.046 71.5654 158.12C63.1364 173.774 58.9479 181.839 54.4442 199.778C45.1138 236.906 50.5469 279.114 70.1253 312.066C74.3218 319.136 76.6514 323.185 81.7495 329.539C91.3552 341.502 98.9664 349.098 111.313 358.78C113.235 360.285 115.238 361.432 117.256 362.941C122.925 367.169 135.965 374.02 142.236 376.58L156.513 381.915C161.06 383.439 166.805 385.02 171.99 386.051C202.615 392.134 243.291 388.603 271.007 373.188C273.285 371.922 275.164 371.086 277.302 369.975C279.492 368.841 281.383 367.563 283.653 366.221C285.835 364.931 287.347 363.936 289.429 362.495C305.605 351.308 317.161 339.317 328.777 323.432C330.341 321.29 331.929 319.698 332 316.56C328.853 314.9 327.517 316.131 321.721 316.982C317.947 317.536 313.092 318.34 309.33 318.34Z" fill="#EDC148"/>
</g>
<path fill-rule="evenodd" clip-rule="evenodd" d="M215.47 278.645C212.929 279.103 212.878 280.171 210.922 282.56C209.143 284.746 208.533 284.746 207.542 287.212C204.366 291.99 203.553 291.075 198.852 299.819C196.488 304.242 194.151 309.046 192.27 314.104C181.42 314.689 169.528 316.799 161.346 321.705C159.541 325.695 165.996 326.966 172.933 336.829L183.427 354.469C198.648 355.664 210.54 361.764 217.833 369.415C248.834 401.951 226.143 453.729 183.682 455.05C188.865 446.459 193.185 441.934 195.32 429.276C200.148 400.604 180.099 372.364 146.252 370.61C140.001 354.012 129.786 342.573 117.665 334.541C105.925 326.737 84.1992 319.214 66.0052 323.153C57.7722 327.678 45.7022 343.819 42.0685 357.189C39.3749 363.416 38.4856 367.636 38.4856 376.024C-1.1041 376.024 -12.8692 428.005 16.048 447.679C31.5993 458.279 46.3628 455.61 70.9349 455.61C176.77 455.61 282.605 455.61 388.414 455.61C388.999 449.967 403.076 425.997 384.984 399.079C380.258 392.089 374.998 386.674 367.324 382.099C363.639 379.913 359.548 377.803 355.152 376.456C350.477 375.033 345.115 375.185 340.643 373.381C337.847 341.582 324.913 319.315 302.832 300.048C285.476 284.873 247.005 268.605 215.47 278.645Z" fill="#8D9394"/>
<path fill-rule="evenodd" clip-rule="evenodd" d="M360.166 310.109C368.233 307.618 370.065 314.836 372.126 321.215C374.238 327.797 376.35 335.955 368.716 338.191C359.708 340.834 358.69 332.956 356.476 326.297C353.982 318.8 351.285 312.828 360.166 310.109ZM347.901 284.593C352.583 288.71 359.301 296.69 350.802 301.493C343.575 305.585 336.806 296.309 332.353 292.853C317.721 281.543 307.135 280.095 289.908 278.417C280.951 277.528 280.569 269.599 282.707 265.99C284.488 263.017 285.175 263.804 286.753 263.118C297.72 258.239 322.861 268.277 331.437 272.776C338.893 276.664 342.099 279.485 347.901 284.593ZM252.069 253.537C238.786 259.052 221.406 268.887 215.273 278.977C246.853 268.938 285.379 285.203 302.759 300.375C324.872 319.639 337.824 341.902 340.623 373.695C345.102 375.499 350.471 375.347 355.153 376.77C359.555 378.117 363.652 380.226 367.342 382.412C375.027 386.986 380.294 392.399 385.027 399.388C403.145 426.302 389.048 450.267 388.463 455.909C433.096 455.909 455.082 417.28 445.972 385.614C444.343 379.947 442.256 374.66 439.33 370.238C437.88 368.027 436.098 365.638 434.444 363.631C431.976 360.632 430.882 360.606 429.024 357.023C425.614 356.261 419.1 350.924 413.705 348.713C406.733 345.816 403.018 345.46 394.875 344.57C393.068 337.658 392.916 331.152 391.058 324.239C383.577 296.512 371.948 289.168 365.942 278.57C360.293 276.029 321.284 228.962 252.069 253.537Z" fill="#898989"/>
<path fill-rule="evenodd" clip-rule="evenodd" d="M66.9082 323.392C85.0597 319.477 106.735 326.954 118.447 334.708C130.54 342.689 140.731 354.055 146.967 370.548C180.735 372.291 200.737 400.353 195.92 428.843C193.791 441.421 189.481 445.917 184.31 454.454C226.671 453.141 249.31 401.691 218.382 369.361C211.106 361.759 199.242 355.697 184.056 354.51L173.586 336.981C166.665 327.181 160.226 325.918 162.026 321.953C154.446 320.791 143.038 306.141 113.605 306.091C98.7747 306.066 71.6489 313.744 66.9082 323.392Z" fill="#898989"/>
<path fill-rule="evenodd" clip-rule="evenodd" d="M287.272 262.307C285.706 262.993 285.024 262.205 283.255 265.18C281.133 268.791 281.512 276.725 290.405 277.615C307.51 279.293 318.021 280.743 332.549 292.058C336.97 295.516 343.691 304.798 350.866 300.704C359.305 295.898 352.635 287.913 347.986 283.794C342.225 278.683 339.042 275.86 331.639 271.97C323.124 267.469 298.162 257.425 287.272 262.307Z" fill="#EFF4F5"/>
<path fill-rule="evenodd" clip-rule="evenodd" d="M360.68 309.504C352.302 312.221 354.847 318.189 357.199 325.682C359.288 332.335 360.248 340.208 368.746 337.567C375.947 335.332 373.955 327.18 371.962 320.602C370.018 314.228 368.29 307.015 360.68 309.504Z" fill="#EFF4F5"/>
</g>
<defs>
<clipPath id="clip0_1043_437">
<rect width="448" height="448" fill="white"/>
</clipPath>
<clipPath id="clip1_1043_437">
<rect width="282" height="304" fill="white" transform="translate(50 85)"/>
</clipPath>
</defs>
</svg>