<svg width="448" height="448" fill="none" xmlns="http://www.w3.org/2000/svg"><g clip-path="url(#clip0_921_570)" fill-rule="evenodd" clip-rule="evenodd"><path d="M147.746 112.986c6.38-2.02 11.757 6.161 5.425 11.717-2.284 2.005-4.528 3.106-6.551 5.111-6.476 6.427-10.564 11.062-14.606 20.344-2.106 4.833-3.111 13.248-8.262 14.467a6.571 6.571 0 0 1-7.591-3.705c-2.202-5.11 6.042-21.092 8.445-24.918 4.325-6.886 16.317-20.855 23.14-23.016zm-31.132 111.439c9.053 4.844 10.108 7.932 24.485 12.803 20.835 7.06 43.383 5.65 63.16-3.813 4.07-1.947 8.735-4.68 11.899-7.095 19.636-14.992 31.927-33.656 34.57-59.702 1.624-16.042-1.718-33.313-9.194-47.003-2.451-4.491-5.272-7.994-7.231-11.848-3.134-4.675-18.453-12.032-24.208-14.372-19.634-7.982-45.471-6.753-64.666 2.71-6.066 2.99-12.791 7.048-17.914 11.526-6.178 5.403-4.163 3.302-9.538 9.47-25.523 29.286-26.603 69.984-5.657 101.67 1.493 2.259 2.667 3.473 4.294 5.654z" fill="#FECB6C"/><path d="M116.613 224.425c14.191 18.067 34.882 27.868 58.35 30.437 13.397 1.466 29.091-2.549 37.854-6.123 36.965-15.073 60.788-56.821 48.274-100.859-1.765-6.214-3.967-10.498-6.488-15.588-3.876-7.824-13.08-19.966-20.301-24.525 1.96 3.853 4.781 7.357 7.231 11.848 7.476 13.689 10.818 30.96 9.194 47.002-2.642 26.047-14.934 44.711-34.57 59.702-3.164 2.416-7.828 5.148-11.899 7.095-19.777 9.463-42.325 10.874-63.16 3.814-14.377-4.871-15.432-7.959-24.485-12.803z" fill="#FFC24F"/><path d="M147.748 112.986c-6.823 2.161-18.815 16.13-23.14 23.016-2.403 3.826-10.647 19.807-8.445 24.918a6.571 6.571 0 0 0 7.591 3.705c5.151-1.219 6.156-9.634 8.262-14.468 4.042-9.281 8.13-13.916 14.606-20.344 2.023-2.004 4.267-3.105 6.551-5.11 6.332-5.556.955-13.737-5.425-11.717z" fill="#FFFEFD"/><path d="M81.66 79.557c0 3.546 9.84 11.987 12.418 14.566 2.067 2.065 4.632 5.027 6.74 6.755 6.518 5.332 14.855-3.005 9.521-9.523-2.015-2.463-18.21-19.158-21.322-19.158-4.12 0-7.357 3.237-7.357 7.36zM280.355 79.557c0-4.123-3.239-7.36-7.359-7.36-3.109 0-19.304 16.695-21.322 19.158-5.332 6.518 3.005 14.855 9.524 9.523 2.108-1.728 4.672-4.69 6.737-6.755 2.58-2.58 12.42-11.02 12.42-14.566zM272.996 270.893c4.12 0 7.359-3.236 7.359-7.357 0-3.11-16.694-19.306-19.157-21.324-6.519-5.332-14.856 3.005-9.524 9.524 2.018 2.466 18.213 19.157 21.322 19.157zM81.66 263.536c0 4.121 3.237 7.357 7.357 7.357 3.111 0 19.307-16.691 21.322-19.157 5.334-6.519-3.003-14.856-9.521-9.524-2.466 2.018-19.158 18.214-19.158 21.324zM43.637 170.933c0 4.539 2.209 7.36 7.36 7.36h22.076c9.924 0 9.924-13.493 0-13.493H50.997c-3.96 0-7.36 2.297-7.36 6.133zM281.582 170.933c0 4.539 2.206 7.36 7.36 7.36h22.077c9.924 0 9.924-13.493 0-13.493h-22.077c-3.96 0-7.36 2.297-7.36 6.133zM174.262 279.48v22.077c0 9.924 13.49 9.924 13.49 0V279.48c0-9.924-13.49-9.924-13.49 0zM174.262 41.534V63.61c0 9.926 13.49 9.926 13.49 0V41.534c0-9.924-13.49-9.924-13.49 0z" fill="#FDCB6C"/><path d="M215.47 278.645c-2.541.458-2.592 1.525-4.548 3.914-1.779 2.186-2.389 2.186-3.38 4.652-3.176 4.779-3.989 3.864-8.69 12.608-2.364 4.422-4.701 9.227-6.582 14.285-10.85.585-22.742 2.694-30.924 7.6-1.805 3.991 4.65 5.262 11.587 15.124l10.494 17.641c15.221 1.194 27.113 7.295 34.406 14.946 31.001 32.536 8.31 84.313-34.151 85.635 5.183-8.592 9.503-13.116 11.638-25.775 4.828-28.672-15.221-56.912-49.068-58.666-6.251-16.598-16.466-28.036-28.587-36.069-11.74-7.803-33.466-15.327-51.66-11.387-8.233 4.524-20.303 20.665-23.936 34.035-2.694 6.228-3.583 10.447-3.583 18.836-39.59 0-51.355 51.981-22.438 71.655 15.551 10.599 30.315 7.93 54.887 7.93h317.479c.585-5.643 14.662-29.612-3.43-56.531-4.726-6.99-9.986-12.404-17.66-16.979-3.685-2.186-7.776-4.296-12.172-5.643-4.675-1.424-10.037-1.271-14.509-3.076-2.796-31.799-15.73-54.065-37.811-73.333-17.356-15.174-55.827-31.442-87.362-21.402z" fill="#EFF4F5"/><path d="M360.166 310.108c8.067-2.49 9.899 4.727 11.96 11.106 2.112 6.582 4.224 14.74-3.41 16.977-9.008 2.643-10.026-5.236-12.24-11.894-2.494-7.497-5.191-13.469 3.69-16.189zm-12.265-25.515c4.682 4.117 11.4 12.097 2.901 16.9-7.227 4.092-13.996-5.185-18.449-8.641-14.632-11.309-25.218-12.758-42.445-14.435-8.957-.89-9.339-8.819-7.201-12.428 1.781-2.973 2.468-2.185 4.046-2.871 10.967-4.88 36.108 5.159 44.684 9.657 7.456 3.888 10.662 6.709 16.464 11.818zm-95.832-31.056c-13.283 5.514-30.663 15.35-36.796 25.439 31.58-10.038 70.106 6.226 87.486 21.399 22.113 19.264 35.065 41.526 37.864 73.319 4.479 1.805 9.848 1.652 14.53 3.075 4.402 1.347 8.499 3.457 12.189 5.642 7.685 4.575 12.952 9.988 17.685 16.977 18.118 26.913 4.021 50.879 3.436 56.521 44.633 0 66.619-38.63 57.509-70.296-1.629-5.667-3.715-10.953-6.642-15.375a79.122 79.122 0 0 0-4.886-6.608c-2.468-2.999-3.562-3.024-5.42-6.607-3.41-.763-9.924-6.1-15.319-8.311-6.972-2.897-10.687-3.253-18.83-4.142-1.807-6.913-1.959-13.419-3.817-20.332-7.481-27.726-19.11-35.071-25.116-45.669-5.649-2.541-44.658-49.608-113.873-25.032zM66.908 323.392c18.152-3.915 39.827 3.562 51.539 11.316 12.093 7.981 22.284 19.347 28.52 35.84 33.768 1.743 53.77 29.805 48.953 58.295-2.129 12.578-6.439 17.074-11.61 25.611 42.361-1.313 65-52.763 34.072-85.093-7.276-7.602-19.14-13.664-34.326-14.851l-10.47-17.529c-6.921-9.8-13.36-11.063-11.56-15.028-7.58-1.162-18.988-15.812-48.421-15.862-14.83-.025-41.956 7.653-46.697 17.301z" fill="#DDE9ED"/><path d="M287.272 262.307c-1.566.686-2.248-.102-4.017 2.873-2.122 3.611-1.743 11.545 7.15 12.435 17.105 1.678 27.616 3.128 42.144 14.443 4.421 3.458 11.142 12.74 18.317 8.646 8.439-4.806 1.769-12.791-2.88-16.91-5.761-5.111-8.944-7.934-16.347-11.824-8.515-4.501-33.477-14.545-44.367-9.663zM360.68 309.504c-8.378 2.717-5.833 8.685-3.481 16.178 2.089 6.653 3.049 14.526 11.547 11.885 7.201-2.235 5.209-10.387 3.216-16.965-1.944-6.374-3.672-13.587-11.282-11.098z" fill="#EFF4F5"/></g><defs><clipPath id="clip0_921_570"><path fill="#fff" d="M0 0h448v448H0z"/></clipPath></defs></svg>