<svg width="448" height="448" fill="none" xmlns="http://www.w3.org/2000/svg"><path fill-rule="evenodd" clip-rule="evenodd" d="M124.013 208.208h86.928c5.248-.04 8.693-.241 11.337 3.245 2.163 2.924 1.802 7.611-.201 10.175-3.685 4.606-19.068 2.964-26.519 2.964-11.056 0-80.719-.601-85.406.32-1.322 5.689-7.691 11.577-7.691 32.408h72.307c8.132 0 15.823-.481 16.264 7.812.48 8.773-7.812 8.773-15.503 8.733-10.896-.04-67.78-.762-70.384.44.04 5.769 6.57 16.705 9.654 21.031 3.766 1.362 6.089 3.525 9.975 5.128 15.302 6.409 21.151 6.169 38.457 6.169h118.454c19.549 0 36.093 1.001 54.24-4.967 27-8.894 51.516-30.646 61.491-57.766 6.089-16.504 8.813-32.768 5.848-51.916-4.086-26.439-13.059-33.249-16.784-42.383-3.245-1.482-1.563-.52-2.844-3.725-12.899-11.497-31.607-18.427-49.313-21.111-8.413-1.282-13.821-.601-21.912-.441-11.417.24-26.68 5.688-36.374 10.536l-27.441 20.269c-3.084-2.083-8.813-11.176-24.916-15.863-32.528-9.494-68.141 13.66-68.141 51.997-3.164 1.522-10.455 2.644-17.425 6.409-4.127 2.203-11.898 7.171-14.101 10.536z" fill="#CBD0D8"/><path fill-rule="evenodd" clip-rule="evenodd" d="M114.797 295.337c3.445 4.126 5.247 7.17 9.974 11.296-12.819 0-25.677-.08-38.496-.04-3.886 0-4.928.08-7.13 2.083-4.407 4.006-3.686 10.055.64 12.939 2.243 1.483 4.687 1.883 8.052 1.963 25.598.561 51.997-.04 77.715-.04 51.395 0 103.232.681 154.587.04l17.586-1.682c13.661-2.324 29.764-8.373 40.981-16.705 15.383-11.417 26.96-24.596 34.731-42.943 4.286-10.135 6.77-20.911 7.451-31.807v-12.659c-1.202-18.908-7.731-37.575-19.348-53.318-3.486-4.727-9.494-12.899-14.502-15.263l-.561.401c3.726 9.133 12.699 15.943 16.785 42.382 2.964 19.148.24 35.412-5.849 51.917-9.974 27.12-34.49 48.872-61.49 57.765-18.147 5.969-34.691 4.967-54.24 4.967H163.228c-17.305 0-23.154.241-38.457-6.169-3.885-1.602-6.209-3.765-9.974-5.127z" fill="#AAB2BC"/><path fill-rule="evenodd" clip-rule="evenodd" d="M105.144 274.305c2.604-1.202 59.488-.481 70.384-.441 7.692.04 15.984.04 15.503-8.733-.441-8.292-8.132-7.811-16.264-7.811H102.46l-63.052.08c-4.487-.04-11.377.16-12.299 6.529v3.165c.401 2.684 2.043 4.487 3.966 5.568 2.484 1.442 5.248 1.683 9.094 1.683l64.975-.04z" fill="#E5E8EC"/><path fill-rule="evenodd" clip-rule="evenodd" d="M110.152 224.912c4.687-.921 74.349-.32 85.406-.32 7.451 0 22.833 1.642 26.519-2.965 2.003-2.563 2.363-7.25.2-10.175-2.644-3.485-6.089-3.284-11.337-3.244h-86.928c-5.368-.08-10.776-.04-16.144-.04-6.89 0-10.495-1.122-13.58 3.365-2.804 4.046-1.963 8.492 1.282 11.256 3.005 2.564 8.853 2.644 14.582 2.123z" fill="#AAB2BC"/><path fill-rule="evenodd" clip-rule="evenodd" d="M386.479 149.601l.561-.4c-1.002-1.843-1.282-2.524-3.405-3.325 1.282 3.205-.401 2.243 2.844 3.725z" fill="#B6BDC6"/></svg>