<svg width="448" height="448" viewBox="0 0 448 448" fill="none" xmlns="http://www.w3.org/2000/svg">
<g clip-path="url(#clip0_1039_420)">
<path fill-rule="evenodd" clip-rule="evenodd" d="M124.107 151.484C123.989 155.229 119.234 166.047 120.242 185.28C123.958 256.232 197.588 300.52 263.046 270.691C265.752 269.458 273.611 265.252 275.128 263.746C272.791 263.746 271.352 263.949 269.646 264.09C268.141 264.215 266.448 263.72 264.258 263.743C260.434 263.785 256.496 263.167 253.274 262.638C238.957 260.287 222.394 253.34 211.505 244.414C210.325 243.447 209.485 242.798 208.247 241.831L204.869 238.98C201.828 236.312 198.967 233.015 196.437 229.895C187.926 219.406 181.19 207.647 177.812 194.059C176.221 187.662 175.847 185.204 175.033 178.96C174.305 173.38 174.638 167.501 174.925 161.971C175.109 158.461 176.569 150.218 177.521 146.686C178.003 144.891 178.414 143.627 178.911 141.855C179.945 138.159 183.828 128.6 185.917 125.134L192.888 114.197C193.707 113.029 194.922 111.33 192.409 111.085H190.923C184.148 111.549 167.525 117.287 164.136 118.981C159.763 121.168 156.774 122.406 152.461 125.228C141.528 132.382 131.686 140.695 124.107 151.484Z" fill="#EFD945"/>
<path fill-rule="evenodd" clip-rule="evenodd" d="M275.129 263.746C273.611 265.252 265.752 269.458 263.046 270.691C197.589 300.52 123.958 256.233 120.242 185.28C119.235 166.047 123.99 155.229 124.107 151.484C123.189 152.316 119.881 157.507 119.148 158.865C113.619 169.112 110.871 174.392 107.916 186.135C101.795 210.439 105.359 238.068 118.203 259.639C120.956 264.267 122.485 266.917 125.829 271.077C132.131 278.908 137.124 283.88 145.223 290.218C146.485 291.203 147.799 291.954 149.123 292.942C152.841 295.709 161.396 300.194 165.51 301.87L174.876 305.362C177.859 306.36 181.628 307.395 185.03 308.07C205.12 312.052 231.805 309.74 249.988 299.65C251.482 298.821 252.715 298.274 254.117 297.546C255.554 296.804 256.794 295.967 258.284 295.089C259.715 294.245 260.707 293.593 262.073 292.65C272.685 285.327 280.266 277.477 287.886 267.079C288.912 265.677 289.954 264.634 290.001 262.581C287.936 261.494 287.059 262.299 283.257 262.857C280.781 263.219 277.597 263.746 275.129 263.746Z" fill="#EDC148"/>
</g>
<path fill-rule="evenodd" clip-rule="evenodd" d="M215.47 212.645C212.929 213.103 212.878 214.17 210.922 216.559C209.143 218.745 208.533 218.745 207.542 221.211C204.366 225.99 203.553 225.075 198.852 233.819C196.488 238.241 194.151 243.046 192.27 248.104C181.42 248.689 169.528 250.798 161.346 255.704C159.541 259.695 165.996 260.966 172.933 270.828L183.427 288.469C198.648 289.663 210.54 295.764 217.833 303.415C248.834 335.951 226.143 387.728 183.682 389.05C188.865 380.458 193.185 375.934 195.32 363.275C200.148 334.603 180.099 306.363 146.252 304.609C140.001 288.011 129.786 276.573 117.665 268.54C105.925 260.737 84.1992 253.213 66.0052 257.153C57.7722 261.677 45.7022 277.818 42.0685 291.188C39.3749 297.416 38.4856 301.635 38.4856 310.024C-1.1041 310.024 -12.8692 362.005 16.048 381.679C31.5993 392.278 46.3628 389.609 70.9349 389.609C176.77 389.609 282.605 389.609 388.414 389.609C388.999 383.966 403.076 359.997 384.984 333.078C380.258 326.088 374.998 320.674 367.324 316.099C363.639 313.913 359.548 311.803 355.152 310.456C350.477 309.032 345.115 309.185 340.643 307.38C337.847 275.581 324.913 253.315 302.832 234.047C285.476 218.873 247.005 202.605 215.47 212.645Z" fill="#8D9394"/>
<path fill-rule="evenodd" clip-rule="evenodd" d="M360.166 244.108C368.233 241.618 370.065 248.835 372.126 255.214C374.238 261.796 376.35 269.954 368.716 272.191C359.708 274.834 358.69 266.955 356.476 260.297C353.982 252.8 351.285 246.828 360.166 244.108ZM347.901 218.593C352.583 222.71 359.301 230.69 350.802 235.493C343.575 239.585 336.806 230.308 332.353 226.852C317.721 215.543 307.135 214.094 289.908 212.417C280.951 211.527 280.569 203.598 282.707 199.989C284.488 197.016 285.175 197.804 286.753 197.118C297.72 192.238 322.861 202.277 331.437 206.775C338.893 210.663 342.099 213.484 347.901 218.593ZM252.069 187.537C238.786 193.051 221.406 202.887 215.273 212.976C246.853 202.938 285.379 219.202 302.759 234.375C324.872 253.639 337.824 275.901 340.623 307.694C345.102 309.499 350.471 309.346 355.153 310.769C359.555 312.116 363.652 314.226 367.342 316.411C375.027 320.986 380.294 326.399 385.027 333.388C403.145 360.301 389.048 384.267 388.463 389.909C433.096 389.909 455.082 351.279 445.972 319.613C444.343 313.946 442.257 308.66 439.33 304.238C437.88 302.027 436.098 299.638 434.444 297.63C431.976 294.631 430.882 294.606 429.024 291.023C425.614 290.26 419.1 284.923 413.705 282.712C406.733 279.815 403.018 279.459 394.875 278.57C393.068 271.657 392.916 265.151 391.058 258.238C383.577 230.512 371.948 223.167 365.942 212.569C360.293 210.028 321.284 162.961 252.069 187.537Z" fill="#898989"/>
<path fill-rule="evenodd" clip-rule="evenodd" d="M66.9082 257.392C85.0597 253.477 106.735 260.953 118.447 268.707C130.54 276.689 140.731 288.055 146.967 304.548C180.735 306.291 200.737 334.352 195.92 362.843C193.791 375.421 189.481 379.917 184.31 388.454C226.671 387.141 249.31 335.691 218.382 303.361C211.106 295.758 199.242 289.696 184.056 288.509L173.586 270.981C166.665 261.181 160.226 259.918 162.026 255.952C154.446 254.79 143.038 240.141 113.605 240.09C98.7747 240.065 71.6489 247.743 66.9082 257.392Z" fill="#898989"/>
<path fill-rule="evenodd" clip-rule="evenodd" d="M287.272 196.306C285.706 196.993 285.024 196.205 283.255 199.18C281.133 202.791 281.512 210.724 290.405 211.614C307.51 213.293 318.021 214.742 332.549 226.058C336.97 229.516 343.691 238.797 350.866 234.703C359.305 229.897 352.635 221.913 347.986 217.793C342.225 212.682 339.042 209.86 331.639 205.969C323.124 201.468 298.162 191.424 287.272 196.306Z" fill="#EFF4F5"/>
<path fill-rule="evenodd" clip-rule="evenodd" d="M360.68 243.503C352.302 246.221 354.847 252.189 357.199 259.681C359.288 266.335 360.248 274.208 368.746 271.567C375.947 269.332 373.955 261.179 371.962 254.602C370.018 248.227 368.29 241.014 360.68 243.503Z" fill="#EFF4F5"/>
<defs>
<clipPath id="clip0_1039_420">
<rect width="185" height="199" fill="white" transform="translate(105 111)"/>
</clipPath>
</defs>
</svg>