<svg width="448" height="448" viewBox="0 0 448 448" fill="none" xmlns="http://www.w3.org/2000/svg">
<path fill-rule="evenodd" clip-rule="evenodd" d="M175.321 125.856C177.204 126.195 177.242 126.986 178.692 128.757C180.01 130.377 180.462 130.377 181.197 132.204C183.55 135.745 184.153 135.067 187.637 141.547C189.388 144.825 191.12 148.385 192.514 152.134C200.555 152.567 209.368 154.13 215.431 157.766C216.768 160.723 211.985 161.665 206.844 168.974L199.067 182.047C187.787 182.932 178.974 187.453 173.57 193.123C150.596 217.234 167.412 255.605 198.879 256.585C195.037 250.218 191.836 246.865 190.254 237.484C186.676 216.236 201.534 195.308 226.617 194.008C231.249 181.708 238.82 173.231 247.802 167.278C256.502 161.496 272.602 155.92 286.085 158.84C292.187 162.192 301.131 174.154 303.824 184.062C305.82 188.677 306.479 191.804 306.479 198.02C335.818 198.02 344.537 236.542 323.107 251.122C311.583 258.977 300.642 256.999 282.432 256.999C204.001 256.999 125.57 256.999 47.1571 256.999C46.724 252.817 36.2917 235.054 49.6993 215.106C53.2019 209.925 57.0999 205.913 62.7869 202.522C65.5174 200.903 68.5492 199.339 71.807 198.341C75.2719 197.286 79.2453 197.399 82.5595 196.061C84.6309 172.496 94.2159 155.995 110.58 141.717C123.442 130.471 151.952 118.415 175.321 125.856Z" fill="#8D9394"/>
<path fill-rule="evenodd" clip-rule="evenodd" d="M68.0911 149.172C62.1132 147.327 60.7554 152.675 59.2279 157.403C57.6628 162.28 56.0976 168.326 61.7549 169.983C68.4305 171.942 69.1848 166.104 70.8254 161.169C72.6735 155.613 74.6724 151.187 68.0911 149.172ZM77.1805 130.263C73.7107 133.314 68.7322 139.228 75.0307 142.788C80.3863 145.82 85.4024 138.946 88.7025 136.384C99.5457 128.003 107.391 126.93 120.157 125.687C126.795 125.028 127.078 119.151 125.494 116.477C124.174 114.274 123.665 114.857 122.496 114.349C114.368 110.733 95.7365 118.172 89.3814 121.506C83.8561 124.387 81.48 126.478 77.1805 130.263ZM148.199 107.249C158.042 111.336 170.922 118.624 175.467 126.101C152.064 118.662 123.514 130.715 110.634 141.959C94.2467 156.235 84.6481 172.733 82.5738 196.294C79.2548 197.631 75.2758 197.518 71.806 198.573C68.5436 199.571 65.5076 201.134 62.7732 202.754C57.0782 206.144 53.1746 210.156 49.6671 215.335C36.2404 235.28 46.6876 253.04 47.1213 257.221C14.0449 257.221 -2.24815 228.594 4.5029 205.127C5.70979 200.927 7.25612 197.01 9.42476 193.733C10.4996 192.094 11.8197 190.324 13.0454 188.836C14.8746 186.614 15.6855 186.595 17.0621 183.939C19.5891 183.374 24.4166 179.419 28.4145 177.781C33.5815 175.634 36.3347 175.37 42.3692 174.711C43.7081 169.588 43.8212 164.767 45.1978 159.644C50.742 139.096 59.36 133.653 63.8104 125.8C67.9968 123.916 96.9056 89.0365 148.199 107.249Z" fill="#898989"/>
<path fill-rule="evenodd" clip-rule="evenodd" d="M285.416 159.017C271.964 156.116 255.902 161.656 247.222 167.403C238.261 173.317 230.708 181.74 226.087 193.963C201.062 195.255 186.239 216.05 189.809 237.164C191.387 246.485 194.581 249.817 198.413 256.143C167.02 255.17 150.243 217.042 173.163 193.083C178.555 187.449 187.348 182.957 198.601 182.077L206.36 169.087C211.489 161.825 216.261 160.889 214.927 157.95C220.544 157.089 228.998 146.233 250.81 146.195C261.801 146.177 281.903 151.867 285.416 159.017Z" fill="#8D9394"/>
<path fill-rule="evenodd" clip-rule="evenodd" d="M122.11 113.748C123.271 114.257 123.777 113.673 125.087 115.878C126.66 118.554 126.379 124.433 119.788 125.093C107.113 126.336 99.3235 127.41 88.5574 135.796C85.2807 138.359 80.3002 145.237 74.9827 142.203C68.729 138.642 73.672 132.725 77.1172 129.672C81.3862 125.884 83.7454 123.792 89.2314 120.909C95.5413 117.574 114.04 110.13 122.11 113.748Z" fill="#EFF4F5"/>
<path fill-rule="evenodd" clip-rule="evenodd" d="M67.7109 148.724C73.9193 150.738 72.0337 155.161 70.2903 160.713C68.7427 165.644 68.0311 171.479 61.7337 169.521C56.397 167.865 57.8735 161.824 59.35 156.949C60.7909 152.225 62.0717 146.88 67.7109 148.724Z" fill="#EFF4F5"/>
<g clip-path="url(#clip0_1039_440)">
<path fill-rule="evenodd" clip-rule="evenodd" d="M152.421 173.788C152.32 177.006 148.233 186.302 149.099 202.828C152.293 263.798 215.575 301.854 271.833 276.222C274.159 275.163 280.913 271.548 282.218 270.254C280.209 270.254 278.972 270.429 277.506 270.55C276.213 270.657 274.757 270.232 272.875 270.252C269.589 270.288 266.204 269.757 263.435 269.302C251.13 267.282 236.895 261.312 227.536 253.642C226.522 252.811 225.8 252.254 224.736 251.423L221.832 248.973C219.219 246.68 216.76 243.847 214.585 241.167C207.271 232.153 201.482 222.049 198.578 210.373C197.211 204.875 196.889 202.764 196.19 197.398C195.564 192.603 195.85 187.551 196.097 182.799C196.255 179.783 197.51 172.7 198.329 169.665C198.742 168.123 199.095 167.036 199.523 165.514C200.411 162.338 203.749 154.124 205.544 151.146L211.536 141.747C212.24 140.744 213.283 139.284 211.124 139.073H209.846C204.023 139.472 189.737 144.403 186.824 145.859C183.066 147.737 180.497 148.801 176.791 151.226C167.394 157.373 158.934 164.517 152.421 173.788Z" fill="#EFD945"/>
<path fill-rule="evenodd" clip-rule="evenodd" d="M282.217 270.254C280.913 271.548 274.158 275.163 271.833 276.222C215.574 301.854 152.292 263.798 149.098 202.828C148.232 186.302 152.319 177.006 152.42 173.788C151.631 174.502 148.788 178.963 148.158 180.13C143.406 188.935 141.044 193.472 138.505 203.563C133.244 224.447 136.307 248.189 147.346 266.725C149.712 270.702 151.026 272.979 153.9 276.553C159.316 283.283 163.608 287.555 170.569 293.002C171.653 293.848 172.782 294.493 173.92 295.342C177.116 297.72 184.469 301.574 188.004 303.014L196.054 306.015C198.618 306.872 201.857 307.761 204.781 308.341C222.048 311.763 244.982 309.777 260.609 301.106C261.894 300.394 262.953 299.923 264.159 299.299C265.393 298.66 266.459 297.942 267.739 297.187C268.97 296.461 269.822 295.902 270.996 295.091C280.116 288.798 286.632 282.053 293.182 273.118C294.063 271.913 294.959 271.018 294.999 269.253C293.225 268.319 292.471 269.011 289.203 269.49C287.075 269.802 284.338 270.254 282.217 270.254Z" fill="#EDC148"/>
</g>
<path fill-rule="evenodd" clip-rule="evenodd" d="M215.47 212.645C212.929 213.103 212.878 214.17 210.922 216.559C209.143 218.745 208.533 218.745 207.542 221.211C204.366 225.99 203.553 225.075 198.852 233.819C196.488 238.241 194.151 243.046 192.27 248.104C181.42 248.689 169.528 250.798 161.346 255.704C159.541 259.695 165.996 260.966 172.933 270.828L183.427 288.469C198.648 289.663 210.54 295.764 217.833 303.415C248.834 335.951 226.143 387.728 183.682 389.05C188.865 380.458 193.185 375.934 195.32 363.275C200.148 334.603 180.099 306.363 146.252 304.609C140.001 288.011 129.786 276.573 117.665 268.54C105.925 260.737 84.1992 253.213 66.0052 257.153C57.7722 261.677 45.7022 277.818 42.0685 291.188C39.3749 297.416 38.4856 301.635 38.4856 310.024C-1.1041 310.024 -12.8692 362.005 16.048 381.679C31.5993 392.278 46.3628 389.609 70.9349 389.609C176.77 389.609 282.605 389.609 388.414 389.609C388.999 383.966 403.076 359.997 384.984 333.078C380.258 326.088 374.998 320.674 367.324 316.099C363.639 313.913 359.548 311.803 355.152 310.456C350.477 309.032 345.115 309.185 340.643 307.38C337.847 275.581 324.913 253.315 302.832 234.047C285.476 218.873 247.005 202.605 215.47 212.645Z" fill="#8D9394"/>
<path fill-rule="evenodd" clip-rule="evenodd" d="M360.166 244.108C368.233 241.618 370.065 248.835 372.126 255.214C374.238 261.796 376.35 269.954 368.716 272.191C359.708 274.834 358.69 266.955 356.476 260.297C353.982 252.8 351.285 246.828 360.166 244.108ZM347.901 218.593C352.583 222.71 359.301 230.69 350.802 235.493C343.575 239.585 336.806 230.308 332.353 226.852C317.721 215.543 307.135 214.094 289.908 212.417C280.951 211.527 280.569 203.598 282.707 199.989C284.488 197.016 285.175 197.804 286.753 197.118C297.72 192.238 322.861 202.277 331.437 206.775C338.893 210.663 342.099 213.484 347.901 218.593ZM252.069 187.537C238.786 193.051 221.406 202.887 215.273 212.976C246.853 202.938 285.379 219.202 302.759 234.375C324.872 253.639 337.824 275.901 340.623 307.694C345.102 309.499 350.471 309.346 355.153 310.769C359.555 312.116 363.652 314.226 367.342 316.411C375.027 320.986 380.294 326.399 385.027 333.388C403.145 360.301 389.048 384.267 388.463 389.909C433.096 389.909 455.082 351.279 445.972 319.613C444.343 313.946 442.257 308.66 439.33 304.238C437.88 302.027 436.098 299.638 434.444 297.63C431.976 294.631 430.882 294.606 429.024 291.023C425.614 290.26 419.1 284.923 413.705 282.712C406.733 279.815 403.018 279.459 394.875 278.57C393.068 271.657 392.916 265.151 391.058 258.238C383.577 230.512 371.948 223.167 365.942 212.569C360.293 210.028 321.284 162.961 252.069 187.537Z" fill="#898989"/>
<path fill-rule="evenodd" clip-rule="evenodd" d="M66.9082 257.392C85.0597 253.477 106.735 260.953 118.447 268.707C130.54 276.689 140.731 288.055 146.967 304.548C180.735 306.291 200.737 334.352 195.92 362.843C193.791 375.421 189.481 379.917 184.31 388.454C226.671 387.141 249.31 335.691 218.382 303.361C211.106 295.758 199.242 289.696 184.056 288.509L173.586 270.981C166.665 261.181 160.226 259.918 162.026 255.952C154.446 254.79 143.038 240.141 113.605 240.09C98.7747 240.065 71.6489 247.743 66.9082 257.392Z" fill="#898989"/>
<path fill-rule="evenodd" clip-rule="evenodd" d="M287.272 196.306C285.706 196.993 285.024 196.205 283.255 199.18C281.133 202.791 281.512 210.724 290.405 211.614C307.51 213.293 318.021 214.742 332.549 226.058C336.97 229.516 343.691 238.797 350.866 234.703C359.305 229.897 352.635 221.913 347.986 217.793C342.225 212.682 339.042 209.86 331.639 205.969C323.124 201.468 298.162 191.424 287.272 196.306Z" fill="#EFF4F5"/>
<path fill-rule="evenodd" clip-rule="evenodd" d="M360.68 243.503C352.302 246.221 354.847 252.189 357.199 259.681C359.288 266.335 360.248 274.208 368.746 271.567C375.947 269.332 373.955 261.179 371.962 254.602C370.018 248.227 368.29 241.014 360.68 243.503Z" fill="#EFF4F5"/>
<defs>
<clipPath id="clip0_1039_440">
<rect width="159" height="171" fill="white" transform="translate(136 139)"/>
</clipPath>
</defs>
</svg>