<svg width="448" height="448" fill="none" xmlns="http://www.w3.org/2000/svg"><path fill-rule="evenodd" clip-rule="evenodd" d="M176.672 370.25c6.485-5.288 8.347-5.896 16.692-2.49 21.241 8.666 45-6.055 47.435-28.837.51-4.778-.566-7.468-.599-11.183-.034-3.57 1.381-6.419 3.123-8.167 2.789-2.802 8.086-4.02 12.452-10.674 9.847-15.006-3.383-22.495 8.314-31.684 2.914-2.289 6.37-6.231 8.047-9.453 2.604-5.002 4.472-11.897 2.523-19.421-4.82-18.599-21.475-19.389-25.198-21.678-2.718-1.671-3.577-3.52-4.859-6.391-3.678-8.243-8.577-14.47-16.84-18.784-4.944-2.58-12.849-4.857-18.715-4.345-14.454 1.26-7.586.202-17.548-5.393l-3.17 2.233c-1.196.991-1.387 1.397-2.461 2.491-1.396 1.423-3.454 2.992-4.708 4.683-2.934 3.953-4.589 8.211-9.093 10.271-3.945 1.804-10.214 1.502-15.468 3.881-5.105 2.31-7.878 4.22-11.192 7.594-18.384 18.719-5.977 37.122-7.265 44.023-.54 2.897-1.715 4.319-3.305 6.04-22.432 24.306-11.353 67.976 24.238 76.604 12.533 3.039 8.247 7.484 17.597 20.68z" fill="#E7EEFF"/><path fill-rule="evenodd" clip-rule="evenodd" d="M176.672 370.249c-9.349-13.195-5.064-17.64-17.597-20.679-35.59-8.628-46.669-52.299-24.238-76.604 1.59-1.722 2.765-3.143 3.305-6.041 1.288-6.9-11.118-25.303 7.265-44.022 3.315-3.374 6.087-5.284 11.192-7.595 5.254-2.378 11.523-2.077 15.468-3.881 4.504-2.059 6.159-6.317 9.094-10.27 1.253-1.691 3.311-3.26 4.707-4.684 1.075-1.093 1.265-1.5 2.461-2.49l3.17-2.233c-4.03-3.683-13.359-7.463-20.26-8.74-19.559-3.619-39.804 4.509-50.988 20.366-8.584 12.172-6.939 6.777-18.987 10.388-19.596 5.873-30.196 26.02-23.271 46.242 2.872 8.391-1.023 10.746-4.716 15.77-5.606 7.625-8.608 16.141-9.277 24.635v7.318c1.462 18.699 14.112 35.99 35.062 41.833 15.3 4.267 7.573 6.568 17.423 19.453 6.724 8.795 16.613 14.006 27.086 14.985h7.233c6.202-.577 12.403-2.653 18.088-6.358 2.299-1.5 6.742-4.815 7.78-7.393z" fill="#DAE2FE"/><path fill-rule="evenodd" clip-rule="evenodd" d="M302.599 72.125c1.163.425.642-.043 1.511.204 2.126.604 1.334-.02 2.563 1.244-6.301 4.378-9.973 16.816-7.525 27.122 1.484 6.246 3.876 8.05 5.911 12.232 3.556 7.309-11.828 21.282-.476 45.449 3.216 6.845 8.276 13.162 14.412 17.514l3.13 2.236c7.026-5.801 9.716 6.491 27.433 4.555 8.856-.967 17.219-8.107 20.262-15.362 1.714-4.086 3.028-8.969 2.072-14.96-.752-4.699-4.185-9.449-.654-13.621 2.555-3.02 4.248-2.945 8.139-9.362 2.885-4.758 4.359-9.991 4.624-15.185v-3.437c-.405-8.01-3.623-15.65-8.894-20.986-3.039-3.076-5.852-5.487-10.049-7.45-6.565-3.07-11.265-2.282-13.95-4.176-1.271-.897-2.825-3.55-3.885-4.865-4.461-5.544-10.978-8.689-17.775-9.277h-4.672a26.664 26.664 0 0 0-9.845 2.804c-5.319 2.716-4.525 5.32-12.332 5.32z" fill="#E7EEFF"/><path fill-rule="evenodd" clip-rule="evenodd" d="M322.126 178.126l-3.131-2.236c-6.136-4.352-11.196-10.669-14.412-17.514-11.351-24.167 4.032-38.14.476-45.449-2.035-4.182-4.427-5.986-5.911-12.232-2.448-10.306 1.224-22.744 7.525-27.122-1.229-1.265-.436-.64-2.563-1.244-.868-.247-.348.222-1.511-.204-4.023-1.806-4.742-3.97-10.55-6.174-2.682-1.016-5.186-1.684-8.154-1.951h-6.51l-.242.017c-8.732.66-17.054 6.84-20.993 12.758-13.094 19.675 1.438 34.298 2.117 37.368.972 4.404-1.574 6.749-3.438 13.186-9.172 31.676 18.785 64.882 55.682 55.682 5.323-1.328 7.335-3.034 11.615-4.885z" fill="#DAE2FE"/><path fill-rule="evenodd" clip-rule="evenodd" d="M111.827 70.875c-3.855 4.144-8.454 9.362-9.575 18.21-1.188 9.363 1.748 16.181 6.013 21.893 6.993 9.365-6.731 16.047 1.925 33.668 3.565 7.26 4.652 4.96 5.932 8.729 2.226-2.007 3.459-3.68 5.171-6.456 5.753-9.333 11.63-1.21 26.661-9.589 24.24-13.512 24.764-46.618 2.926-62.086-7.829-5.546-18.736-7.614-28.479-5.341-5.356 1.25-4.495 2.126-10.574.972zM333.375 378.149c4.779-2.781 6.791-9.426 13.516-8.854 21.684 1.843 36.275-15.444 37.109-33.479v-3.225c-.421-9.181-4.496-18.27-13.109-24.855-10.589-8.096-16.271-6.649-26.269-7.484-4.111-.344-4.925-2.597-7.448-4.377-1.957 2.933-4.07 4.026-6.136 8.325-6.158 12.818-.555 19.404-1.307 24.769-.718 5.12-13.236 13.314-8.166 32.441 1.412 5.329 4.255 9.783 7.803 13.467.783.815 1.071 1.075 1.964 1.799l1.6 1.18c.072-.126.29.202.443.293z" fill="#E7EEFF"/><path fill-rule="evenodd" clip-rule="evenodd" d="M116.123 153.375c-1.279-3.769-2.366-1.469-5.932-8.729-8.655-17.621 5.068-24.303-1.924-33.668-4.265-5.712-7.201-12.53-6.014-21.892 1.121-8.849 5.721-14.067 9.576-18.211l-1.436-1.38c-4.084-3.135-9.485-5.03-14.997-5.495h-5.31c-3.26.283-6.421 1.096-9.226 2.484-2.75 1.36-6.044 3.422-8.275 5.475-10.237 9.423-11.765 26.591-2.137 39.343 5.286 7-1.23 9.974-1.474 20.839-.08 3.597 1.433 8.789 2.526 11.234 5.948 13.316 21.59 20.783 35.828 15.203 4.228-1.658 5.382-2.899 8.795-5.203zM333.374 378.149c-.153-.091-.371-.42-.443-.293l-1.6-1.18c-.893-.725-1.181-.984-1.964-1.799-3.548-3.684-6.391-8.138-7.803-13.467-5.07-19.127 7.448-27.322 8.166-32.442.752-5.365-4.851-11.95 1.307-24.768 2.066-4.299 4.179-5.392 6.136-8.325-4.982-6.911-23.985-11.985-37.716 1.708-12.334 12.302-5.937 26.092-6.029 30.172-.154 6.826-11.994 12.801-8.828 30.643 2.771 15.613 15.363 24.264 27.943 25.602h6.834c5.259-.578 10.185-2.52 13.997-5.851zM353.57 262.125c-.667-.586.07-.016-1.122-.885-1.24-.904.757.495-.76-.528-14.553-9.827-18.171-25.458-9.014-39.892 1.398-2.205 2.674-3.336 4.705-5.311 1.866-1.816 4.453-2.701 5.818-4.634-9.558-4.514-20.125-2.013-27.22 2.601-14.556 9.468-17.404 33.705-.119 46.166 7.446 5.369 17.946 6.839 27.712 2.483z" fill="#DAE2FE"/><path fill-rule="evenodd" clip-rule="evenodd" d="M353.571 262.125c2.622-1.705 2.303-.78 6.427-4.004 11.355-8.879 14.179-27.784 2.66-40.279l-2.855-2.771c-1.519-1.386-4.7-3.52-6.605-4.196-1.366 1.933-3.952 2.818-5.819 4.634-2.03 1.975-3.306 3.106-4.704 5.311-9.157 14.434-5.539 30.065 9.013 39.892 1.518 1.023-.479-.376.761.527 1.192.87.455.299 1.122.886z" fill="#E7EEFF"/><path fill-rule="evenodd" clip-rule="evenodd" d="M215.997 157.749c-1.923-2.362-12.654-6.871-12.869-21.247-.081-5.486 1.671-9.441 3.93-13.173 1.142-1.886 2.049-3.092 4-4.753 1.338-1.138 3.371-2.119 4.715-3.327-.099-.097-.269-.38-.319-.273-.051.107-.259-.222-.331-.266l-4.162-1.421c-14.497-2.953-28.183 7.545-28.248 22.578-.074 16.883 16.364 29.178 33.284 21.882z" fill="#DAE2FE"/><path fill-rule="evenodd" clip-rule="evenodd" d="M215.997 157.75c7.709-4.618 13.697-10.848 13.679-21.248-.014-9.597-6.999-19.759-13.903-21.253-1.345 1.208-3.377 2.189-4.715 3.327-1.951 1.661-2.858 2.867-4 4.754-2.259 3.732-4.011 7.686-3.93 13.172.215 14.377 10.946 18.885 12.869 21.248z" fill="#E7EEFF"/></svg>