<svg width="448" height="448" fill="none" xmlns="http://www.w3.org/2000/svg"><path d="M91 119.039c10.815-7.295 37.444-17.292 58.992-17.292 32.177 0 46.389 20.264 74.008 22.696 25.474 2.242 51.648-22.696 73.74-22.696 26.278 0 40.758 5.944 59.26 17.292M91 192.928c10.815-7.295 37.444-17.292 58.992-17.292 32.177-.001 46.389 20.264 74.008 22.695 25.474 2.243 51.648-22.695 73.74-22.695 26.278 0 40.758 5.944 59.26 17.292M91 266.816c10.815-7.295 37.444-17.291 58.992-17.292 32.177 0 46.389 20.265 74.008 22.696 25.474 2.243 51.648-22.696 73.74-22.696 26.278 0 40.758 5.944 59.26 17.292M91 340.706c10.815-7.295 37.444-17.292 58.992-17.292 32.177 0 46.389 20.264 74.008 22.696 25.474 2.242 51.648-22.696 73.74-22.696 26.278 0 40.758 5.944 59.26 17.292" stroke="#C7C7C7" stroke-width="12" stroke-linecap="round"/></svg>