<svg width="448" height="448" fill="none" xmlns="http://www.w3.org/2000/svg"><path fill-rule="evenodd" clip-rule="evenodd" d="M215.47 111.191c-2.541.457-2.592 1.525-4.548 3.914-1.779 2.186-2.389 2.186-3.38 4.652-3.176 4.779-3.989 3.864-8.69 12.608-2.364 4.422-4.701 9.226-6.582 14.285-10.85.584-22.742 2.694-30.924 7.6-1.805 3.991 4.65 5.262 11.587 15.124l10.494 17.641c15.221 1.194 27.113 7.295 34.406 14.946 31.001 32.535 8.31 84.313-34.151 85.635 5.183-8.592 9.503-13.116 11.638-25.775 4.828-28.672-15.221-56.912-49.068-58.666-6.251-16.598-16.466-28.036-28.587-36.069-11.74-7.803-33.466-15.327-51.66-11.387-8.233 4.524-20.303 20.665-23.936 34.035-2.694 6.228-3.583 10.447-3.583 18.835-39.59 0-51.355 51.981-22.438 71.655 15.551 10.6 30.315 7.931 54.887 7.931h317.479c.585-5.643 14.662-29.613-3.43-56.531-4.726-6.99-9.986-12.404-17.66-16.979-3.685-2.186-7.776-4.296-12.172-5.643-4.675-1.424-10.037-1.271-14.509-3.076-2.796-31.799-15.73-54.065-37.811-73.333-17.356-15.175-55.827-31.442-87.362-21.402z" fill="#EFF4F5"/><path fill-rule="evenodd" clip-rule="evenodd" d="M360.166 142.654c8.067-2.49 9.899 4.727 11.96 11.106 2.112 6.582 4.224 14.74-3.41 16.977-9.008 2.643-10.026-5.236-12.24-11.894-2.494-7.497-5.191-13.47 3.69-16.189zm-12.265-25.516c4.682 4.118 11.4 12.098 2.901 16.901-7.227 4.091-13.996-5.185-18.449-8.641-14.632-11.309-25.218-12.758-42.445-14.435-8.957-.89-9.339-8.819-7.201-12.428 1.781-2.973 2.468-2.185 4.046-2.871 10.967-4.88 36.108 5.159 44.684 9.657 7.456 3.888 10.662 6.709 16.464 11.817zm-95.832-31.056c-13.283 5.515-30.663 15.351-36.796 25.44 31.58-10.039 70.106 6.226 87.486 21.399 22.113 19.263 35.065 41.526 37.864 73.319 4.479 1.805 9.848 1.652 14.53 3.075 4.402 1.347 8.499 3.457 12.189 5.642 7.685 4.575 12.952 9.988 17.685 16.977 18.118 26.913 4.021 50.879 3.436 56.521 44.633 0 66.619-38.63 57.509-70.296-1.629-5.667-3.715-10.953-6.642-15.375a79.122 79.122 0 0 0-4.886-6.608c-2.468-2.999-3.562-3.024-5.42-6.607-3.41-.763-9.924-6.1-15.319-8.311-6.972-2.897-10.687-3.253-18.83-4.142-1.807-6.913-1.959-13.419-3.817-20.332-7.481-27.726-19.11-35.071-25.116-45.669-5.649-2.541-44.658-49.608-113.873-25.032zM66.908 155.938c18.152-3.915 39.827 3.562 51.539 11.316 12.093 7.981 22.284 19.347 28.52 35.84 33.768 1.743 53.77 29.804 48.953 58.295-2.129 12.578-6.439 17.074-11.61 25.611 42.361-1.313 65-52.763 34.072-85.093-7.276-7.602-19.14-13.664-34.326-14.851l-10.47-17.529c-6.921-9.8-13.36-11.063-11.56-15.028-7.58-1.162-18.988-15.812-48.421-15.862-14.83-.025-41.956 7.653-46.697 17.301z" fill="#DDE9ED"/><path fill-rule="evenodd" clip-rule="evenodd" d="M287.272 94.853c-1.566.686-2.248-.102-4.017 2.873-2.122 3.611-1.743 11.545 7.15 12.435 17.105 1.678 27.616 3.127 42.144 14.443 4.421 3.458 11.142 12.74 18.317 8.646 8.439-4.806 1.769-12.791-2.88-16.91-5.761-5.111-8.944-7.934-16.347-11.824-8.515-4.501-33.477-14.545-44.367-9.663zM360.68 142.05c-8.378 2.717-5.833 8.685-3.481 16.177 2.089 6.654 3.049 14.527 11.547 11.886 7.201-2.235 5.209-10.387 3.216-16.965-1.944-6.374-3.672-13.587-11.282-11.098z" fill="#EFF4F5"/><path fill-rule="evenodd" clip-rule="evenodd" d="M214.403 378.272c-1.914-2.192-2.995-5.187-.278-7.472 3.428-2.902 9.912 2.038 8.399 9.325-3.304.586-5.805.833-8.121-1.853zm-.525-33.316c-3.365 4.601-6.669 13.617-9.849 17.384-.71 1.698-.803 1.852-1.019 4.292 2.902 4.23 6.824 16.92 20.996 16.92 14.11.031 18.217-12.906 20.996-16.92-.587-2.471-.278-1.39-1.389-3.983-2.81-7.72-14.945-28.222-19.607-31.649-2.625 1.976-8.09 10.436-10.128 13.956z" fill="#30C3FF"/><path fill-rule="evenodd" clip-rule="evenodd" d="M245.003 366.632c-2.779 4.014-6.886 16.951-20.996 16.92-14.173 0-18.094-12.69-20.996-16.92-4.261 9.047 5.372 28.067 20.996 28.067 15.685 0 25.257-19.082 20.996-28.067z" fill="#0091FF"/><path fill-rule="evenodd" clip-rule="evenodd" d="M222.525 380.124c1.513-7.287-4.971-12.227-8.399-9.325-2.717 2.285-1.636 5.28.278 7.473 2.316 2.686 4.817 2.439 8.121 1.852z" fill="#F8FBFD"/><path fill-rule="evenodd" clip-rule="evenodd" d="M118.403 352.272c-1.914-2.192-2.995-5.187-.278-7.472 3.428-2.902 9.912 2.038 8.399 9.325-3.304.586-5.805.833-8.121-1.853zm-.525-33.316c-3.365 4.601-6.669 13.617-9.849 17.384-.71 1.698-.803 1.852-1.019 4.292 2.902 4.23 6.824 16.92 20.996 16.92 14.11.031 18.217-12.906 20.996-16.92-.587-2.471-.278-1.39-1.389-3.983-2.81-7.72-14.945-28.222-19.607-31.649-2.625 1.976-8.09 10.436-10.128 13.956z" fill="#30C3FF"/><path fill-rule="evenodd" clip-rule="evenodd" d="M149.003 340.632c-2.779 4.014-6.886 16.951-20.996 16.92-14.173 0-18.094-12.69-20.996-16.92-4.261 9.047 5.372 28.067 20.996 28.067 15.685 0 25.257-19.082 20.996-28.067z" fill="#0091FF"/><path fill-rule="evenodd" clip-rule="evenodd" d="M126.525 354.124c1.513-7.287-4.971-12.227-8.399-9.325-2.717 2.285-1.636 5.28.278 7.473 2.316 2.686 4.817 2.439 8.121 1.852z" fill="#F8FBFD"/><path fill-rule="evenodd" clip-rule="evenodd" d="M310.403 352.272c-1.914-2.192-2.995-5.187-.278-7.472 3.428-2.902 9.912 2.038 8.399 9.325-3.304.586-5.805.833-8.121-1.853zm-.525-33.316c-3.365 4.601-6.669 13.617-9.849 17.384-.71 1.698-.803 1.852-1.019 4.292 2.902 4.23 6.824 16.92 20.996 16.92 14.11.031 18.217-12.906 20.996-16.92-.587-2.471-.278-1.39-1.389-3.983-2.81-7.72-14.945-28.222-19.607-31.649-2.625 1.976-8.09 10.436-10.128 13.956z" fill="#30C3FF"/><path fill-rule="evenodd" clip-rule="evenodd" d="M341.003 340.632c-2.779 4.014-6.886 16.951-20.996 16.92-14.173 0-18.094-12.69-20.996-16.92-4.261 9.047 5.372 28.067 20.996 28.067 15.685 0 25.257-19.082 20.996-28.067z" fill="#0091FF"/><path fill-rule="evenodd" clip-rule="evenodd" d="M318.525 354.124c1.513-7.287-4.971-12.227-8.399-9.325-2.717 2.285-1.636 5.28.278 7.473 2.316 2.686 4.817 2.439 8.121 1.852z" fill="#F8FBFD"/></svg>