<svg width="448" height="448" fill="none" xmlns="http://www.w3.org/2000/svg"><path fill-rule="evenodd" clip-rule="evenodd" d="M218.456 74.088c-1.585.285-1.617.952-2.838 2.443-1.11 1.364-1.491 1.364-2.109 2.902-1.982 2.982-2.489 2.411-5.423 7.867-1.475 2.76-2.933 5.758-4.107 8.915-6.77.364-14.191 1.681-19.297 4.742-1.126 2.491 2.902 3.284 7.23 9.438l6.549 11.008c9.498.745 16.919 4.552 21.47 9.326 19.345 20.303 5.185 52.613-21.311 53.438 3.234-5.361 5.93-8.185 7.262-16.084 3.013-17.892-9.498-35.514-30.619-36.608-3.901-10.358-10.275-17.495-17.839-22.508-7.325-4.869-20.883-9.564-32.236-7.106-5.137 2.824-12.669 12.896-14.937 21.239-1.681 3.886-2.235 6.519-2.235 11.753-24.705 0-32.047 32.437-14.002 44.714 9.704 6.614 18.917 4.949 34.25 4.949h198.112c.365-3.521 9.149-18.479-2.141-35.276-2.949-4.362-6.231-7.741-11.02-10.596-2.299-1.364-4.852-2.68-7.595-3.521-2.918-.888-6.264-.793-9.054-1.919-1.745-19.843-9.816-33.738-23.595-45.76-10.83-9.47-34.837-19.621-54.515-13.356z" fill="#EFF4F5"/><path fill-rule="evenodd" clip-rule="evenodd" d="M308.747 93.721c5.034-1.554 6.177 2.95 7.463 6.93 1.318 4.108 2.636 9.198-2.128 10.594-5.621 1.649-6.256-3.267-7.638-7.422-1.556-4.678-3.239-8.405 2.303-10.102zM301.093 77.8c2.922 2.569 7.114 7.549 1.81 10.546-4.509 2.553-8.733-3.235-11.512-5.392-9.13-7.057-15.736-7.961-26.486-9.008-5.589-.555-5.828-5.503-4.494-7.755 1.112-1.855 1.541-1.364 2.525-1.792 6.844-3.045 22.532 3.22 27.884 6.027 4.652 2.426 6.653 4.186 10.273 7.374zm-59.8-19.38c-8.289 3.442-19.134 9.58-22.961 15.875 19.706-6.264 43.747 3.886 54.592 13.353 13.799 12.021 21.881 25.913 23.628 45.753 2.795 1.126 6.145 1.03 9.067 1.918 2.747.841 5.303 2.157 7.606 3.521 4.795 2.855 8.082 6.233 11.036 10.594 11.306 16.794 2.509 31.749 2.143 35.269 27.852 0 41.572-24.105 35.887-43.865-1.016-3.536-2.318-6.835-4.145-9.594a49.385 49.385 0 0 0-3.048-4.124c-1.541-1.871-2.223-1.887-3.383-4.123-2.127-.476-6.192-3.806-9.559-5.186-4.351-1.807-6.669-2.029-11.75-2.585-1.128-4.313-1.223-8.373-2.382-12.687-4.668-17.301-11.925-21.885-15.673-28.498-3.525-1.586-27.867-30.956-71.058-15.62zM125.752 102.01c11.327-2.443 24.852 2.223 32.161 7.061 7.546 4.981 13.905 12.073 17.797 22.365 21.071 1.088 33.553 18.598 30.547 36.377-1.328 7.849-4.018 10.655-7.245 15.982 26.434-.82 40.561-32.925 21.261-53.099-4.54-4.745-11.943-8.527-21.419-9.268l-6.534-10.938c-4.318-6.116-8.336-6.904-7.213-9.378-4.73-.725-11.849-9.867-30.216-9.898-9.254-.016-26.181 4.776-29.139 10.796z" fill="#DDE9ED"/><path fill-rule="evenodd" clip-rule="evenodd" d="M263.261 63.892c-.978.428-1.404-.064-2.507 1.793-1.324 2.253-1.088 7.204 4.462 7.76 10.673 1.046 17.232 1.95 26.298 9.012 2.759 2.158 6.952 7.95 11.43 5.395 5.266-3 1.104-7.981-1.797-10.552-3.595-3.19-5.582-4.95-10.201-7.379-5.313-2.808-20.89-9.076-27.685-6.03zM309.07 93.344c-5.227 1.695-3.639 5.42-2.172 10.095 1.304 4.152 1.903 9.065 7.206 7.417 4.493-1.395 3.25-6.482 2.007-10.587-1.214-3.978-2.292-8.478-7.041-6.925z" fill="#EFF4F5"/><path fill-rule="evenodd" clip-rule="evenodd" d="M217.645 240.722c-1.195-1.368-1.869-3.237-.174-4.663 2.139-1.811 6.185 1.272 5.241 5.819-2.061.366-3.622.52-5.067-1.156zm-.328-20.789c-2.1 2.87-4.161 8.496-6.146 10.847-.443 1.06-.501 1.156-.636 2.678 1.811 2.64 4.258 10.559 13.102 10.559 8.805.019 11.368-8.054 13.102-10.559-.366-1.541-.174-.867-.867-2.485-1.754-4.817-9.326-17.611-12.235-19.749-1.638 1.233-5.048 6.512-6.32 8.709z" fill="#30C3FF"/><path fill-rule="evenodd" clip-rule="evenodd" d="M236.741 233.458c-1.735 2.505-4.297 10.578-13.102 10.559-8.844 0-11.291-7.919-13.102-10.559-2.659 5.645 3.352 17.514 13.102 17.514 9.788 0 15.76-11.907 13.102-17.514z" fill="#0091FF"/><path fill-rule="evenodd" clip-rule="evenodd" d="M222.714 241.878c.944-4.547-3.102-7.63-5.241-5.819-1.696 1.426-1.021 3.295.173 4.663 1.445 1.676 3.006 1.522 5.068 1.156z" fill="#F8FBFD"/><path fill-rule="evenodd" clip-rule="evenodd" d="M157.739 224.498c-1.195-1.368-1.869-3.236-.174-4.662 2.139-1.811 6.185 1.271 5.241 5.818-2.062.367-3.622.521-5.067-1.156zm-.328-20.789c-2.1 2.871-4.162 8.497-6.146 10.847-.443 1.06-.501 1.156-.636 2.679 1.811 2.639 4.258 10.558 13.102 10.558 8.805.019 11.368-8.054 13.102-10.558-.366-1.542-.174-.867-.867-2.486-1.754-4.817-9.326-17.61-12.235-19.749-1.638 1.233-5.048 6.512-6.32 8.709z" fill="#30C3FF"/><path fill-rule="evenodd" clip-rule="evenodd" d="M176.834 217.234c-1.734 2.505-4.296 10.578-13.102 10.559-8.843 0-11.29-7.919-13.101-10.559-2.659 5.646 3.352 17.514 13.101 17.514 9.788 0 15.761-11.907 13.102-17.514z" fill="#0091FF"/><path fill-rule="evenodd" clip-rule="evenodd" d="M162.807 225.654c.944-4.547-3.102-7.63-5.24-5.819-1.696 1.426-1.022 3.295.173 4.663 1.445 1.676 3.006 1.522 5.067 1.156z" fill="#F8FBFD"/><path fill-rule="evenodd" clip-rule="evenodd" d="M277.549 224.498c-1.194-1.368-1.869-3.236-.173-4.662 2.138-1.811 6.185 1.271 5.24 5.818-2.061.367-3.622.521-5.067-1.156zm-.327-20.789c-2.101 2.871-4.162 8.497-6.147 10.847-.443 1.06-.501 1.156-.636 2.679 1.812 2.639 4.259 10.558 13.102 10.558 8.806.019 11.368-8.054 13.102-10.558-.366-1.542-.173-.867-.867-2.486-1.753-4.817-9.325-17.61-12.235-19.749-1.637 1.233-5.048 6.512-6.319 8.709z" fill="#30C3FF"/><path fill-rule="evenodd" clip-rule="evenodd" d="M296.645 217.234c-1.734 2.505-4.297 10.578-13.102 10.559-8.844 0-11.291-7.919-13.102-10.559-2.659 5.646 3.353 17.514 13.102 17.514 9.788 0 15.761-11.907 13.102-17.514z" fill="#0091FF"/><path fill-rule="evenodd" clip-rule="evenodd" d="M282.618 225.654c.944-4.547-3.102-7.63-5.241-5.819-1.695 1.426-1.021 3.295.174 4.663 1.445 1.676 3.005 1.522 5.067 1.156z" fill="#F8FBFD"/><path fill-rule="evenodd" clip-rule="evenodd" d="M175.726 344.057l-.011 49.143h38.558v-36.111h9.232l-.023-49.858c-2.168 1.275-9.164 7.042-11.947 9.109a216.895 216.895 0 0 0-6.002 4.594l-17.949 13.814c-1.352 1.061-11.098 8.315-11.858 9.309z" fill="#FFB64F"/><path fill-rule="evenodd" clip-rule="evenodd" d="M223.507 357.089h10.718l.134 36.111h36.926l.012-49.143-5.89-4.716c-2.034-1.486-3.968-3.006-5.991-4.593l-29.908-23.035c-1.598-1.24-4.403-3.61-6.024-4.482l.023 49.858z" fill="#FE9900"/><path fill-rule="evenodd" clip-rule="evenodd" d="M223.484 307.232c1.621.872 4.426 3.241 6.024 4.482l29.908 23.034c2.023 1.587 3.957 3.107 5.991 4.593l5.89 4.717c2.056 1.419 5.767 4.605 7.32 5.432.548-1.04.984-1.397 1.699-2.37 3.476-4.649 10.025-12.674 12.685-16.641-.581-.794-14.641-11.411-17.111-13.3-.592-.458-1.654-1.554-2.436-1.699-.112-.201-.213-.212-.313-.726l-.023-24.488h-19.793v9.5c-1.006.134-.223.101-.536-.235L223.574 277l-.09 30.232z" fill="#FF4E19"/><path fill-rule="evenodd" clip-rule="evenodd" d="M175.727 344.058c.76-.995 10.505-8.248 11.858-9.31l17.949-13.814a213.42 213.42 0 0 1 6.002-4.593c2.783-2.068 9.779-7.835 11.947-9.109l.09-30.232-26.052 19.894c-3.018 2.257-5.846 4.47-8.774 6.706l-23.772 18.306c-.883.66-1.497 1.196-2.28 1.789-1.442 1.106-2.839 2.19-4.314 3.297-.782.581-1.386 1.028-2.146 1.654-.693.57-1.788 1.229-2.235 1.833 2.693 4.034 13.121 16.608 14.384 19.011 1.006-.537.872-.559 1.743-1.241.705-.559 1.163-.872 1.867-1.397 1.363-1.017 2.347-1.878 3.733-2.794z" fill="#FF7D3C"/></svg>