<svg class="svg-icon" style="width: 1em;height: 1em;vertical-align: middle;fill: currentColor;overflow: hidden;" viewBox="0 0 1024 1024" version="1.1" xmlns="http://www.w3.org/2000/svg"><path d="M512 918.613333a193.28 193.28 0 0 1-136.96-330.24l106.666667-106.666666a42.666667 42.666667 0 0 1 60.586666 0l106.666667 106.666666A193.28 193.28 0 0 1 512 918.613333z m0-346.453333l-76.373333 76.8a107.946667 107.946667 0 1 0 152.746666 0z" fill="#309FFB" /><path d="M725.333333 504.746667a163.413333 163.413333 0 0 1-115.626666-279.04l85.333333-85.333334a42.666667 42.666667 0 0 1 60.586667 0l85.333333 85.333334A163.413333 163.413333 0 0 1 725.333333 504.746667z m0-273.92l-55.04 55.466666a77.653333 77.653333 0 1 0 110.08 0z" fill="#78C0FB" /><path d="M256 559.786667a133.546667 133.546667 0 0 1-94.293333-227.413334l64-64a42.666667 42.666667 0 0 1 60.586666 0l64 64A133.12 133.12 0 0 1 256 559.786667z m0-200.96l-33.706667 34.133333a47.786667 47.786667 0 1 0 67.413334 0z" fill="#BBDEFB" /></svg>