<?xml version="1.0" encoding="utf-8"?>
<svg version="1.1" xmlns="http://www.w3.org/2000/svg" xmlns:xlink="http://www.w3.org/1999/xlink" x="0px" y="0px" viewBox="0 0 1000 1000" enable-background="new 0 0 1000 1000" xml:space="preserve">
<g><path style="fill: rgb(248,208,75);" d="M510.5,749.6c-14.9-9.9-38.1-9.9-53.1,1.7l-262,207.3c-14.9,11.6-21.6,6.6-14.9-11.6L474,48.1c5-16.6,14.9-18.2,21.6,0l325,898.7c6.6,16.6-1.7,23.2-14.9,11.6L510.5,749.6z"/><path style="fill: rgb(157,208,251);" d="M817.2,990c-8.3,0-16.6-3.3-26.5-9.9L497.2,769.5c-5-3.3-18.2-3.3-23.2,0L210.3,976.7c-19.9,16.6-41.5,14.9-51.4,0c-6.6-9.9-8.3-21.6-3.3-38.1L449.1,39.8C459,13.3,477.3,10,483.9,10c6.6,0,24.9,3.3,34.8,29.8l325,898.7c5,14.9,5,28.2-1.7,38.1C837.1,985,827.2,990,817.2,990z M485.6,716.4c14.9,0,28.2,5,39.8,11.6l255.4,182.4L485.6,92.9l-267,814.2l223.9-177.4C454.1,721.4,469,716.4,485.6,716.4z"/></g>
</svg>